<?xml version="1.0" encoding="UTF-8" standalone="no"?>
<!DOCTYPE svg PUBLIC "-//W3C//DTD SVG 1.1//EN" "http://www.w3.org/Graphics/SVG/1.1/DTD/svg11.dtd">
<!-- Created with Vectornator (http://vectornator.io/) -->
<svg height="273.12px" stroke-miterlimit="10" style="fill-rule:nonzero;clip-rule:evenodd;stroke-linecap:round;stroke-linejoin:round;" version="1.1" viewBox="0 0 1024 273.12" width="1024.0px" xml:space="preserve" xmlns="http://www.w3.org/2000/svg" xmlns:xlink="http://www.w3.org/1999/xlink">
<defs/>
<clipPath id="ArtboardFrame">
<rect height="273.12" width="1024" x="0" y="0"/>
</clipPath>
<g clip-path="url(#ArtboardFrame)" id="Layer-1">
<g opacity="1">
<path d="M162.319 126.995C162.048 96.826 187.028 82.1486 188.171 81.4653C174.023 60.8439 152.095 58.0263 144.389 57.8017C125.972 55.864 108.107 68.8191 98.7251 68.8191C89.1561 68.8191 74.7089 57.9889 59.1381 58.3071C39.1011 58.616 20.3562 70.2138 10.0756 88.2236C-11.1412 124.945 4.68243 178.909 25.0097 208.591C35.178 223.138 47.0597 239.36 62.6118 238.789C77.8268 238.171 83.5102 229.101 101.871 229.101C120.064 229.101 125.401 238.789 141.262 238.424C157.591 238.171 167.871 223.821 177.684 209.153C189.435 192.501 194.154 176.082 194.341 175.24C193.966 175.109 162.637 163.146 162.319 126.995ZM132.357 38.2755C140.541 28.0443 146.14 14.1251 144.585 0C132.741 0.524193 117.929 8.19052 109.399 18.197C101.852 27.0147 95.111 41.4674 96.8525 55.059C110.157 56.0512 123.818 48.3475 132.357 38.2755Z" fill="#ffffff" fill-rule="nonzero" opacity="1" stroke="none"/>
<path d="M382.698 236.701L361.434 236.701L349.787 200.111L309.301 200.111L298.205 236.701L277.504 236.701L317.624 112.131L342.399 112.131C342.399 112.131 382.698 236.701 382.698 236.701ZM346.275 184.759L335.742 152.231C334.628 148.908 332.53 141.083 329.459 128.764L329.085 128.764C327.849 134.062 325.873 141.888 323.167 152.231L312.812 184.759L346.275 184.759ZM485.673 190.685C485.673 205.961 481.525 218.036 473.22 226.901C465.786 234.792 456.544 238.733 445.524 238.733C433.624 238.733 425.066 234.492 419.869 225.993L419.869 273.123L399.907 273.123L399.907 176.4C399.907 166.806 399.654 156.968 399.167 146.877L416.723 146.877L417.837 161.115L418.212 161.115C424.869 150.387 434.972 145.024 448.53 145.024C459.129 145.024 467.977 149.208 475.055 157.586C482.124 165.982 485.673 177.009 485.673 190.685ZM465.336 191.415C465.336 182.672 463.37 175.464 459.419 169.782C455.102 163.876 449.307 160.918 442.041 160.918C437.116 160.918 432.64 162.565 428.642 165.814C424.635 169.09 422.013 173.368 420.787 178.666C420.239 180.647 419.928 182.686 419.86 184.741L419.86 199.727C419.86 206.251 421.864 211.765 425.871 216.277C429.878 220.77 435.084 223.026 441.489 223.026C449.007 223.026 454.859 220.114 459.044 214.339C463.239 208.545 465.336 200.906 465.336 191.415ZM589.013 190.685C589.013 205.961 584.865 218.036 576.56 226.901C569.117 234.792 559.885 238.733 548.855 238.733C536.954 238.733 528.397 234.492 523.2 225.993L523.2 273.123L503.238 273.123L503.238 176.4C503.238 166.806 502.985 156.968 502.498 146.877L520.054 146.877L521.168 161.115L521.543 161.115C528.191 150.387 538.293 145.024 551.86 145.024C562.45 145.024 571.298 149.208 578.395 157.586C585.455 165.982 589.013 177.009 589.013 190.685ZM568.667 191.415C568.667 182.672 566.692 175.464 562.74 169.782C558.424 163.876 552.647 160.918 545.381 160.918C540.456 160.918 535.981 162.565 531.964 165.814C527.957 169.09 525.344 173.368 524.118 178.666C523.509 181.137 523.181 183.149 523.181 184.741L523.181 199.727C523.181 206.251 525.194 211.765 529.183 216.277C533.191 220.76 538.396 223.026 544.819 223.026C552.347 223.026 558.199 220.114 562.375 214.339C566.57 208.545 568.667 200.906 568.667 191.415ZM704.553 201.758C704.553 212.364 700.846 220.985 693.477 227.64C685.369 234.904 674.049 238.545 659.536 238.545C646.128 238.545 635.379 235.962 627.271 230.785L631.887 214.152C640.641 219.337 650.257 221.921 660.725 221.921C668.253 221.921 674.105 220.217 678.281 216.838C682.466 213.45 684.582 208.919 684.582 203.265C684.582 198.201 682.831 193.961 679.395 190.507C675.94 187.062 670.228 183.851 662.204 180.903C640.388 172.768 629.471 160.871 629.471 145.22C629.471 134.998 633.329 126.63 641.025 120.087C648.721 113.553 658.927 110.287 671.624 110.287C682.962 110.287 692.41 112.262 699.909 116.202L694.9 132.471C687.84 128.652 679.872 126.742 670.959 126.742C663.918 126.742 658.394 128.474 654.442 131.919C651.118 134.998 649.433 138.752 649.433 143.208C649.433 148.122 651.353 152.203 655.173 155.405C658.487 158.353 664.536 161.564 673.281 165.009C684.011 169.333 691.895 174.369 696.941 180.154C702.025 185.939 704.553 193.156 704.553 201.758ZM770.722 161.854L748.719 161.854L748.719 205.465C748.719 216.557 752.595 222.089 760.367 222.089C763.934 222.089 766.893 221.79 769.234 221.163L769.786 236.318C765.854 237.787 760.676 238.527 754.262 238.527C746.378 238.527 740.217 236.121 735.77 231.31C731.341 226.498 729.113 218.439 729.113 207.094L729.113 161.817L716.005 161.817L716.005 146.84L729.113 146.84L729.113 130.393L748.719 124.477L748.719 146.84L770.722 146.84C770.722 146.84 770.722 161.854 770.722 161.854ZM869.802 191.05C869.802 204.857 865.851 216.192 857.967 225.057C849.719 234.183 838.745 238.733 825.066 238.733C811.864 238.733 801.368 234.361 793.54 225.628C785.713 216.876 781.799 205.849 781.799 192.547C781.799 178.628 785.844 167.227 793.905 158.363C801.986 149.489 812.866 145.052 826.545 145.052C839.728 145.052 850.318 149.433 858.333 158.175C865.992 166.656 869.802 177.608 869.802 191.05ZM849.11 191.508C849.11 183.28 847.331 176.223 843.764 170.316C839.578 163.183 833.586 159.617 825.824 159.617C817.828 159.617 811.695 163.183 807.519 170.316C803.943 176.223 802.164 183.402 802.164 191.883C802.164 200.12 803.943 207.197 807.519 213.085C811.836 220.217 817.856 223.784 825.655 223.784C833.286 223.784 839.269 220.142 843.595 212.907C847.265 206.86 849.11 199.755 849.11 191.508ZM934.717 164.428C932.64 164.053 930.534 163.869 928.425 163.876C921.402 163.876 915.972 166.516 912.152 171.832C908.837 176.513 907.17 182.429 907.17 189.571L907.17 236.701L887.208 236.701L887.208 175.165C887.226 165.736 887.033 156.307 886.628 146.886L904.015 146.886L904.745 164.072L905.298 164.072C907.414 158.166 910.728 153.401 915.279 149.835C919.444 146.719 924.505 145.031 929.707 145.024C931.552 145.024 933.218 145.155 934.698 145.389L934.717 164.428ZM1023.99 187.54C1024.04 190.573 1023.8 193.605 1023.26 196.591L963.377 196.591C963.602 205.465 966.504 212.261 972.066 216.941C977.113 221.116 983.639 223.213 991.653 223.213C1000.52 223.213 1008.61 221.809 1015.89 218.972L1019.01 232.817C1010.51 236.523 1000.47 238.368 988.891 238.368C974.959 238.368 964.023 234.268 956.064 226.086C948.124 217.896 944.145 206.888 944.145 193.1C944.145 179.564 947.844 168.285 955.25 159.289C963.002 149.685 973.48 144.883 986.663 144.883C999.612 144.883 1009.42 149.685 1016.07 159.289C1021.34 166.899 1023.99 176.335 1023.99 187.54ZM1004.96 182.363C1005.1 176.438 1003.79 171.336 1001.08 167.021C997.627 161.461 992.309 158.69 985.184 158.69C978.657 158.69 973.339 161.395 969.294 166.825C965.971 171.14 963.995 176.326 963.386 182.344L1004.96 182.363Z" fill="#ffffff" fill-rule="nonzero" opacity="1" stroke="none"/>
<g opacity="1">
<path d="M277.504 76.7395L296.353 76.7395C301.273 76.7395 305.471 75.7657 308.948 73.818C312.424 71.8702 315.084 69.0473 316.928 65.3491C318.772 61.6509 319.694 57.1962 319.694 51.9852L319.694 51.9171C319.694 46.7351 318.769 42.3385 316.918 38.7273C315.067 35.1161 312.403 32.3658 308.926 30.4764C305.449 28.587 301.258 27.6423 296.353 27.6423L277.504 27.6423L277.504 76.7395ZM287.779 68.2536L287.779 36.1282L295.057 36.1282C298.057 36.1282 300.612 36.7375 302.722 37.9562C304.833 39.1749 306.442 40.9648 307.551 43.326C308.66 45.6871 309.214 48.5705 309.214 51.9761L309.214 52.0442C309.214 55.5724 308.671 58.5397 307.585 60.9461C306.499 63.3524 304.904 65.1719 302.799 66.4046C300.694 67.6373 298.113 68.2536 295.057 68.2536L287.779 68.2536Z" fill="#ffffff" fill-rule="nonzero" opacity="1" stroke="none"/>
<path d="M342.911 77.4971C346.628 77.4971 349.841 76.7383 352.551 75.2207C355.26 73.703 357.355 71.5217 358.834 68.6765C360.313 65.8314 361.052 62.4158 361.052 58.4296L361.052 58.3616C361.052 54.3984 360.304 50.997 358.808 48.1574C357.312 45.3178 355.207 43.1363 352.493 41.613C349.779 40.0897 346.58 39.3281 342.897 39.3281C339.237 39.3281 336.049 40.0926 333.334 41.6215C330.619 43.1505 328.513 45.3371 327.015 48.1813C325.518 51.0256 324.77 54.419 324.77 58.3616L324.77 58.4296C324.77 62.397 325.508 65.8056 326.983 68.6555C328.458 71.5054 330.554 73.6915 333.269 75.2138C335.984 76.736 339.198 77.4971 342.911 77.4971ZM342.939 69.7055C341.283 69.7055 339.853 69.2643 338.649 68.3818C337.446 67.4992 336.518 66.2172 335.866 64.5357C335.213 62.8541 334.887 60.8198 334.887 58.4328L334.887 58.3648C334.887 55.9894 335.216 53.966 335.874 52.2946C336.532 50.6231 337.463 49.3428 338.666 48.4535C339.87 47.5643 341.28 47.1197 342.897 47.1197C344.534 47.1197 345.954 47.562 347.157 48.4466C348.36 49.3313 349.29 50.6116 349.948 52.2877C350.606 53.9637 350.935 55.9894 350.935 58.3648L350.935 58.4328C350.935 60.8177 350.611 62.8509 349.963 64.5325C349.316 66.214 348.395 67.4966 347.202 68.3802C346.009 69.2637 344.588 69.7055 342.939 69.7055Z" fill="#ffffff" fill-rule="nonzero" opacity="1" stroke="none"/>
<path d="M373.469 76.7395L383.906 76.7395L390.474 50.8874L390.753 50.8874L397.386 76.7395L407.961 76.7395L417.68 40.0862L407.861 40.0862L402.322 67.1649L402.044 67.1649L395.51 40.0862L386.009 40.0862L379.526 67.1649L379.248 67.1649L373.709 40.0862L363.703 40.0862L373.469 76.7395Z" fill="#ffffff" fill-rule="nonzero" opacity="1" stroke="none"/>
<path d="M422.338 76.7395L432.273 76.7395L432.273 55.6534C432.273 54.0359 432.571 52.6219 433.166 51.4115C433.761 50.2012 434.605 49.257 435.695 48.579C436.786 47.901 438.074 47.562 439.559 47.562C441.814 47.562 443.499 48.2216 444.615 49.5407C445.732 50.8599 446.29 52.7351 446.29 55.1665L446.29 76.7395L456.225 76.7395L456.225 53.0708C456.225 48.7582 455.131 45.3896 452.943 42.965C450.755 40.5404 447.644 39.3281 443.609 39.3281C440.868 39.3281 438.571 39.9271 436.719 41.1253C434.868 42.3234 433.478 43.9653 432.551 46.0511L432.273 46.0511L432.273 40.0862L422.338 40.0862L422.338 76.7395Z" fill="#ffffff" fill-rule="nonzero" opacity="1" stroke="none"/>
<path d="M463.58 76.7395L473.515 76.7395L473.515 27.1537L463.58 27.1537L463.58 76.7395Z" fill="#ffffff" fill-rule="nonzero" opacity="1" stroke="none"/>
<path d="M497.777 77.4971C501.493 77.4971 504.707 76.7383 507.416 75.2207C510.126 73.703 512.22 71.5217 513.699 68.6765C515.178 65.8314 515.917 62.4158 515.917 58.4296L515.917 58.3616C515.917 54.3984 515.169 50.997 513.673 48.1574C512.177 45.3178 510.072 43.1363 507.358 41.613C504.644 40.0897 501.445 39.3281 497.762 39.3281C494.102 39.3281 490.914 40.0926 488.199 41.6215C485.484 43.1505 483.378 45.3371 481.881 48.1813C480.384 51.0256 479.635 54.419 479.635 58.3616L479.635 58.4296C479.635 62.397 480.373 65.8056 481.848 68.6555C483.324 71.5054 485.419 73.6915 488.134 75.2138C490.85 76.736 494.064 77.4971 497.777 77.4971ZM497.804 69.7055C496.148 69.7055 494.719 69.2643 493.515 68.3818C492.311 67.4992 491.383 66.2172 490.731 64.5357C490.079 62.8541 489.753 60.8198 489.753 58.4328L489.753 58.3648C489.753 55.9894 490.082 53.966 490.739 52.2946C491.397 50.6231 492.328 49.3428 493.532 48.4535C494.736 47.5643 496.146 47.1197 497.762 47.1197C499.4 47.1197 500.82 47.562 502.022 48.4466C503.225 49.3313 504.155 50.6116 504.813 52.2877C505.471 53.9637 505.8 55.9894 505.8 58.3648L505.8 58.4328C505.8 60.8177 505.476 62.8509 504.829 64.5325C504.181 66.214 503.261 67.4966 502.067 68.3802C500.874 69.2637 499.453 69.7055 497.804 69.7055Z" fill="#ffffff" fill-rule="nonzero" opacity="1" stroke="none"/>
<path d="M532.517 77.3211C534.122 77.3211 535.61 77.0838 536.981 76.609C538.352 76.1343 539.572 75.4522 540.642 74.5628C541.711 73.6733 542.586 72.6189 543.266 71.3993L543.544 71.3993L543.544 76.7395L553.454 76.7395L553.454 51.6295C553.454 49.1404 552.82 46.9744 551.552 45.1314C550.284 43.2884 548.49 41.8604 546.172 40.8475C543.854 39.8346 541.107 39.3281 537.933 39.3281C534.738 39.3281 531.976 39.8166 529.649 40.7935C527.321 41.7705 525.496 43.1191 524.175 44.8392C522.853 46.5594 522.089 48.5429 521.884 50.7895L521.85 51.1824L530.953 51.1824L531.018 50.8932C531.294 49.7261 531.982 48.7742 533.082 48.0375C534.182 47.3009 535.651 46.9325 537.489 46.9325C539.456 46.9325 540.957 47.3952 541.992 48.3206C543.026 49.246 543.544 50.5207 543.544 52.1447L543.544 63.3632C543.544 64.6323 543.204 65.7753 542.525 66.7919C541.847 67.8086 540.922 68.6092 539.751 69.1938C538.58 69.7784 537.248 70.0707 535.754 70.0707C534.039 70.0707 532.662 69.6857 531.623 68.9155C530.585 68.1454 530.065 67.0839 530.065 65.731L530.065 65.6768C530.065 64.3697 530.569 63.3243 531.576 62.5407C532.584 61.7571 534.065 61.3075 536.018 61.192L548.694 60.3648L548.694 54.2106L534.524 55.0862C529.974 55.3676 526.46 56.4579 523.98 58.357C521.5 60.2562 520.26 62.8714 520.26 66.2026L520.26 66.2568C520.26 68.423 520.777 70.3395 521.811 72.0062C522.845 73.6728 524.284 74.9753 526.127 75.9136C527.97 76.852 530.1 77.3211 532.517 77.3211Z" fill="#ffffff" fill-rule="nonzero" opacity="1" stroke="none"/>
<path d="M574.127 77.4604C576.763 77.4604 579.049 76.8526 580.986 75.6369C582.923 74.4213 584.379 72.7438 585.352 70.6045L585.631 70.6045L585.631 76.7395L595.566 76.7395L595.566 27.1537L585.631 27.1537L585.631 46.3664L585.352 46.3664C584.364 44.186 582.892 42.474 580.937 41.2305C578.981 39.987 576.706 39.3653 574.113 39.3653C571.042 39.3653 568.393 40.1226 566.166 41.6372C563.94 43.1518 562.224 45.3286 561.018 48.1675C559.813 51.0064 559.211 54.4101 559.211 58.3786L559.211 58.419C559.211 62.3718 559.812 65.7706 561.016 68.6154C562.22 71.4602 563.939 73.6455 566.172 75.1715C568.405 76.6974 571.057 77.4604 574.127 77.4604ZM577.457 69.2265C575.794 69.2265 574.35 68.7911 573.127 67.9203C571.903 67.0495 570.962 65.8048 570.303 64.1861C569.645 62.5675 569.316 60.6451 569.316 58.419L569.316 58.3786C569.316 56.1432 569.647 54.2214 570.31 52.613C570.973 51.0047 571.915 49.7669 573.135 48.8998C574.355 48.0328 575.796 47.5992 577.457 47.5992C579.092 47.5992 580.522 48.0374 581.747 48.9137C582.972 49.79 583.931 51.0347 584.624 52.6479C585.317 54.261 585.663 56.1769 585.663 58.3956L585.663 58.436C585.663 60.6412 585.322 62.5532 584.639 64.172C583.956 65.7908 582.998 67.038 581.764 67.9134C580.53 68.7888 579.094 69.2265 577.457 69.2265Z" fill="#ffffff" fill-rule="nonzero" opacity="1" stroke="none"/>
<path d="M619.013 76.7395L631.001 76.7395L631.001 54.1927L654.282 54.1927L654.282 44.7055L631.001 44.7055L631.001 29.3435L656.525 29.3435L656.525 19.4594L619.013 19.4594L619.013 76.7395Z" fill="#ffffff" fill-rule="nonzero" opacity="1" stroke="none"/>
<path d="M664.682 76.7395L676.67 76.7395L676.67 55.9988L685.681 55.9988C685.787 55.9988 685.89 55.9988 685.989 55.9988C686.088 55.9988 686.184 55.9988 686.277 55.9988L696.935 76.7395L710.53 76.7395L698.463 54.1927C701.639 52.9489 704.159 50.8616 706.025 47.9308C707.891 44.9999 708.823 41.649 708.823 37.878L708.823 37.7986C708.823 33.9614 708.01 30.6766 706.382 27.9443C704.755 25.2119 702.413 23.1147 699.356 21.6526C696.3 20.1905 692.621 19.4594 688.321 19.4594L664.682 19.4594L664.682 76.7395ZM676.67 46.9086L676.67 28.8473L686.872 28.8473C689.823 28.8473 692.175 29.6545 693.928 31.2687C695.681 32.883 696.558 35.0662 696.558 37.8184L696.558 37.8978C696.558 40.7029 695.714 42.906 694.027 44.5071C692.34 46.1081 690.008 46.9086 687.031 46.9086L676.67 46.9086Z" fill="#ffffff" fill-rule="nonzero" opacity="1" stroke="none"/>
<path d="M717.834 76.7395L755.783 76.7395L755.783 66.8554L729.822 66.8554L729.822 52.4659L754.314 52.4659L754.314 43.0979L729.822 43.0979L729.822 29.3435L755.783 29.3435L755.783 19.4594L717.834 19.4594L717.834 76.7395Z" fill="#ffffff" fill-rule="nonzero" opacity="1" stroke="none"/>
<path d="M765.528 76.7395L803.477 76.7395L803.477 66.8554L777.516 66.8554L777.516 52.4659L802.008 52.4659L802.008 43.0979L777.516 43.0979L777.516 29.3435L803.477 29.3435L803.477 19.4594L765.528 19.4594L765.528 76.7395Z" fill="#ffffff" fill-rule="nonzero" opacity="1" stroke="none"/>
<path d="M843.456 77.4971C847.173 77.4971 850.386 76.7383 853.095 75.2207C855.805 73.703 857.899 71.5217 859.378 68.6765C860.857 65.8314 861.597 62.4158 861.597 58.4296L861.597 58.3616C861.597 54.3984 860.849 50.997 859.353 48.1574C857.857 45.3178 855.752 43.1363 853.037 41.613C850.323 40.0897 847.125 39.3281 843.441 39.3281C839.781 39.3281 836.594 40.0926 833.878 41.6215C831.163 43.1505 829.057 45.3371 827.56 48.1813C826.063 51.0256 825.314 54.419 825.314 58.3616L825.314 58.4296C825.314 62.397 826.052 65.8056 827.528 68.6555C829.003 71.5054 831.098 73.6915 833.814 75.2138C836.529 76.736 839.743 77.4971 843.456 77.4971ZM843.483 69.7055C841.828 69.7055 840.398 69.2643 839.194 68.3818C837.99 67.4992 837.062 66.2172 836.41 64.5357C835.758 62.8541 835.432 60.8198 835.432 58.4328L835.432 58.3648C835.432 55.9894 835.761 53.966 836.419 52.2946C837.076 50.6231 838.007 49.3428 839.211 48.4535C840.415 47.5643 841.825 47.1197 843.441 47.1197C845.079 47.1197 846.499 47.562 847.702 48.4466C848.904 49.3313 849.835 50.6116 850.492 52.2877C851.15 53.9637 851.479 55.9894 851.479 58.3648L851.479 58.4328C851.479 60.8177 851.155 62.8509 850.508 64.5325C849.86 66.214 848.94 67.4966 847.747 68.3802C846.553 69.2637 845.132 69.7055 843.483 69.7055Z" fill="#ffffff" fill-rule="nonzero" opacity="1" stroke="none"/>
<path d="M867.46 76.7395L877.395 76.7395L877.395 55.6534C877.395 54.0359 877.692 52.6219 878.288 51.4115C878.883 50.2012 879.726 49.257 880.817 48.579C881.908 47.901 883.196 47.562 884.681 47.562C886.936 47.562 888.621 48.2216 889.737 49.5407C890.854 50.8599 891.412 52.7351 891.412 55.1665L891.412 76.7395L901.347 76.7395L901.347 53.0708C901.347 48.7582 900.253 45.3896 898.065 42.965C895.877 40.5404 892.766 39.3281 888.731 39.3281C885.99 39.3281 883.693 39.9271 881.841 41.1253C879.989 42.3234 878.6 43.9653 877.673 46.0511L877.395 46.0511L877.395 40.0862L867.46 40.0862L867.46 76.7395Z" fill="#ffffff" fill-rule="nonzero" opacity="1" stroke="none"/>
<path d="M937.876 77.377C938.896 77.377 939.814 77.3367 940.631 77.2563C941.447 77.1758 942.139 77.0881 942.705 76.9931L942.705 69.7071C942.368 69.7433 942.022 69.7778 941.667 69.8108C941.313 69.8437 940.897 69.8602 940.419 69.8602C938.88 69.8602 937.732 69.5177 936.976 68.8326C936.219 68.1475 935.841 66.9565 935.841 65.2595L935.841 47.5716L942.705 47.5716L942.705 40.0862L935.841 40.0862L935.841 31.1792L925.804 31.1792L925.804 40.0862L920.607 40.0862L920.607 47.5716L925.804 47.5716L925.804 66.5678C925.804 70.4197 926.781 73.1842 928.735 74.8613C930.69 76.5384 933.737 77.377 937.876 77.377Z" fill="#ffffff" fill-rule="nonzero" opacity="1" stroke="none"/>
<path d="M949.131 76.7395L959.066 76.7395L959.066 55.7231C959.066 54.1055 959.363 52.6868 959.959 51.4671C960.554 50.2474 961.395 49.2916 962.482 48.5997C963.568 47.9079 964.844 47.562 966.31 47.562C968.584 47.562 970.318 48.275 971.513 49.701C972.708 51.127 973.305 53.1206 973.305 55.6816L973.305 76.7395L983.24 76.7395L983.24 53.5997C983.24 50.6541 982.729 48.117 981.706 45.9884C980.683 43.8597 979.22 42.2175 977.316 41.0617C975.411 39.906 973.125 39.3281 970.458 39.3281C967.735 39.3281 965.434 39.9341 963.554 41.146C961.674 42.3579 960.271 44.0764 959.344 46.3015L959.066 46.3015L959.066 27.1537L949.131 27.1537L949.131 76.7395Z" fill="#ffffff" fill-rule="nonzero" opacity="1" stroke="none"/>
<path d="M1006.97 77.4971C1009.6 77.4971 1011.89 77.1554 1013.84 76.4719C1015.8 75.7884 1017.45 74.8816 1018.8 73.7515C1020.15 72.6214 1021.22 71.3855 1022 70.0436C1022.79 68.7018 1023.33 67.3771 1023.61 66.0697L1023.69 65.6848L1014.55 65.688L1014.48 65.8921C1014.25 66.5425 1013.82 67.1899 1013.19 67.8344C1012.57 68.479 1011.75 69.0139 1010.75 69.4392C1009.75 69.8645 1008.56 70.0771 1007.18 70.0771C1005.44 70.0771 1003.95 69.6941 1002.69 68.928C1001.43 68.1619 1000.46 67.0582 999.785 65.6167C999.106 64.1753 998.766 62.4417 998.766 60.4158L998.766 56.529C998.766 54.4351 999.107 52.6589 999.788 51.2005C1000.47 49.742 1001.41 48.6355 1002.61 47.8807C1003.81 47.126 1005.18 46.7486 1006.74 46.7486C1008.29 46.7486 1009.66 47.1146 1010.83 47.8467C1012.01 48.5787 1012.93 49.6706 1013.59 51.1223C1014.25 52.574 1014.59 54.3763 1014.59 56.529L1014.59 60.3818L1019.29 54.5232L993.856 54.5232L993.856 60.7773L1024 60.7773L1024 57.7119C1024 54.0167 1023.29 50.7902 1021.88 48.0322C1020.46 45.2743 1018.45 43.1341 1015.84 41.6117C1013.23 40.0893 1010.14 39.3281 1006.57 39.3281C1002.99 39.3281 999.884 40.112 997.248 41.6798C994.612 43.2475 992.572 45.462 991.126 48.323C989.681 51.1841 988.958 54.5586 988.958 58.4466L988.958 58.4806C988.958 62.3821 989.681 65.7573 991.128 68.6061C992.574 71.4549 994.643 73.649 997.335 75.1882C1000.03 76.7275 1003.24 77.4971 1006.97 77.4971Z" fill="#ffffff" fill-rule="nonzero" opacity="1" stroke="none"/>
</g>
</g>
</g>
</svg>
