<?xml version="1.0" encoding="UTF-8" standalone="no"?>
<!DOCTYPE svg PUBLIC "-//W3C//DTD SVG 1.1//EN" "http://www.w3.org/Graphics/SVG/1.1/DTD/svg11.dtd">
<!-- Created with Vectornator (http://vectornator.io/) -->
<svg height="235.48px" stroke-miterlimit="10" style="fill-rule:nonzero;clip-rule:evenodd;stroke-linecap:round;stroke-linejoin:round;" version="1.1" viewBox="0 0 1024 235.48" width="1024.0px" xml:space="preserve" xmlns="http://www.w3.org/2000/svg" xmlns:xlink="http://www.w3.org/1999/xlink">
<defs/>
<g id="Layer-1">
<g opacity="1">
<g opacity="1">
<path d="M162.564 154.007C190.511 138.662 211.698 126.969 213.524 126.061C219.366 122.953 225.398 114.731 213.524 108.344C209.69 106.336 189.048 95.007 162.564 80.3977L125.85 117.475L162.564 154.007Z" fill="#ffd900" fill-rule="nonzero" opacity="1" stroke="none"/>
<path d="M125.85 117.475L8.94906 235.294C11.6928 235.657 14.7909 234.93 18.4432 232.922C26.1113 228.725 107.398 184.334 162.564 154.016L125.85 117.475Z" fill="#f43249" fill-rule="nonzero" opacity="1" stroke="none"/>
<path d="M125.85 117.475L162.564 80.5794C162.564 80.5794 26.6655 6.41577 18.4432 2.03664C15.3451 0.2014 11.8745-0.343721 8.76736 0.2014L125.85 117.475Z" fill="#00ee76" fill-rule="nonzero" opacity="1" stroke="none"/>
<path d="M125.85 117.475L8.76736 0.2014C4.01572 1.30073 7.10543e-15 5.49816 7.10543e-15 14.0838C7.10543e-15 27.7845 7.10543e-15 210.082 7.10543e-15 221.411C7.10543e-15 229.27 3.10719 234.93 8.94906 235.475L125.85 117.475Z" fill="#00d3ff" fill-rule="nonzero" opacity="1" stroke="none"/>
</g>
<path d="M507.071 94.0893C486.066 94.0893 468.713 110.343 468.713 132.629C468.713 154.734 485.884 171.169 507.071 171.169C528.258 171.169 545.43 154.916 545.43 132.629C545.43 110.343 528.258 94.0893 507.071 94.0893ZM507.071 155.833C495.56 155.833 485.521 146.148 485.521 132.457C485.521 118.574 495.569 109.08 507.071 109.08C518.573 109.08 528.622 118.574 528.622 132.457C528.622 146.148 518.573 155.833 507.071 155.833ZM423.595 94.0893C402.408 94.0893 385.237 110.343 385.237 132.629C385.237 154.734 402.408 171.169 423.595 171.169C444.782 171.169 461.953 154.916 461.953 132.629C461.953 110.343 444.782 94.0893 423.595 94.0893ZM423.595 155.833C412.084 155.833 402.045 146.148 402.045 132.457C402.045 118.574 412.093 109.08 423.595 109.08C435.106 109.08 445.145 118.574 445.145 132.457C445.145 146.148 435.279 155.833 423.595 155.833L423.595 155.833ZM324.41 105.964L324.41 122.218L363.132 122.218C362.033 131.348 358.935 138.108 354.365 142.678C348.705 148.338 339.937 154.552 324.41 154.552C300.48 154.552 282.036 135.191 282.036 111.261C282.036 87.3298 300.489 67.6056 324.41 67.6056C337.375 67.6056 346.697 72.7206 353.638 79.2984L365.14 67.7873C355.455 58.4748 342.49 51.3519 324.41 51.3519C291.712 51.3519 264.311 78.1991 264.311 110.897C264.311 143.595 291.712 170.443 324.41 170.443C342.127 170.443 355.282 164.601 365.876 153.635C376.651 142.859 379.94 127.696 379.94 115.458C379.94 111.624 379.577 108.153 379.022 105.228L324.41 105.964ZM730.28 118.565C727.173 109.98 717.315 94.0893 697.582 94.0893C677.848 94.0893 661.595 109.616 661.595 132.629C661.595 154.18 677.848 171.169 699.408 171.169C716.943 171.169 726.991 160.394 731.188 154.18L718.224 145.412C713.835 151.809 707.994 156.006 699.408 156.006C690.822 156.006 684.799 152.172 680.956 144.313L731.915 122.944L730.28 118.565ZM678.403 131.539C678.039 116.739 689.914 109.071 698.309 109.071C705.068 109.071 710.547 112.36 712.554 117.293L678.403 131.539ZM636.937 168.616L653.745 168.616L653.745 55.731L636.937 55.731L636.937 168.616ZM609.545 102.675L609 102.675C605.166 98.1051 598.043 94.0893 588.903 94.0893C569.724 94.0893 552.371 111.079 552.371 132.629C552.371 154.18 569.905 170.988 588.903 170.988C598.034 170.988 605.157 166.972 609 162.22L609.545 162.22L609.545 167.699C609.545 182.499 601.686 190.349 589.085 190.349C578.855 190.349 572.458 182.862 569.905 176.648L555.296 182.862C559.494 193.092 570.641 205.694 589.085 205.694C608.809 205.694 625.435 194.001 625.435 165.691L625.435 96.4606L609.545 96.4606L609.545 102.675L609.545 102.675ZM590.366 155.833C578.855 155.833 569.179 146.148 569.179 132.638C569.179 119.129 578.864 109.262 590.366 109.262C601.695 109.262 610.826 119.129 610.826 132.638C610.817 145.967 601.686 155.833 590.366 155.833ZM808.641 55.731L768.457 55.731L768.457 168.616L785.264 168.616L785.264 125.87L808.641 125.87C827.275 125.87 845.537 112.351 845.537 90.8004C845.537 69.25 827.275 55.731 808.641 55.731ZM809.186 110.17L785.437 110.17L785.437 71.4396L809.186 71.4396C821.606 71.4396 828.91 81.8514 828.91 90.8004C828.738 99.5678 821.615 110.17 809.186 110.17L809.186 110.17ZM912.577 93.9076C900.521 93.9076 887.92 99.2044 882.805 111.261L897.605 117.475C900.894 111.261 906.735 109.253 912.95 109.253C921.717 109.253 930.485 114.55 930.666 123.862L930.666 124.961C927.559 123.135 921.172 120.573 913.132 120.573C897.06 120.573 880.797 129.522 880.797 145.967C880.797 161.13 893.952 170.806 908.562 170.806C919.891 170.806 926.096 165.691 929.93 159.667L930.475 159.667L930.475 168.435L946.729 168.435L946.729 125.143C946.547 105.237 931.757 93.9076 912.577 93.9076ZM910.569 155.652C905.091 155.652 897.414 152.908 897.414 146.157C897.414 137.39 906.908 134.101 915.13 134.101C922.435 134.101 925.906 135.746 930.475 137.935C929.194 148.347 920.245 155.652 910.569 155.652ZM1005.37 96.4697L986.187 145.24L985.642 145.24L965.736 96.4697L947.656 96.4697L977.61 164.782L960.621 202.959L978.155 202.959L1024 96.4697L1005.37 96.4697ZM854.858 168.616L871.666 168.616L871.666 55.731L854.858 55.731L854.858 168.616Z" fill="#808285" fill-rule="nonzero" opacity="1" stroke="none"/>
</g>
</g>
</svg>
