<?xml version="1.0" encoding="UTF-8" standalone="no"?>
<!DOCTYPE svg PUBLIC "-//W3C//DTD SVG 1.1//EN" "http://www.w3.org/Graphics/SVG/1.1/DTD/svg11.dtd">
<!-- Created with Vectornator (http://vectornator.io/) -->
<svg height="189.59000000000015px" stroke-miterlimit="10" style="fill-rule:nonzero;clip-rule:evenodd;stroke-linecap:round;stroke-linejoin:round;" version="1.1" viewBox="0 0 1920 189.59" width="1920.0px" xml:space="preserve" xmlns="http://www.w3.org/2000/svg" xmlns:xlink="http://www.w3.org/1999/xlink">
<defs/>
<clipPath id="ArtboardFrame">
<rect height="189.59" width="1920" x="0" y="0"/>
</clipPath>
<g clip-path="url(#ArtboardFrame)" id="Layer-1">
<g opacity="1">
<path d="M276.018 0.0110252L53.0099 0.0110252L37.8863 40.3775L199.099 40.3775L177.967 94.7874L125.654 94.7874L148.073 40.3775L57.7397 40.3775L-1.13687e-13 189.586L90.2018 189.586L115.467 128.781L242.563 129.565C250.907 129.565 258.37 124.384 261.291 116.569L294.757 27.0065C299.629 13.9332 289.962 0.0110211 276.018 0.0110252Z" fill="#101010" fill-opacity="0.968627" fill-rule="nonzero" opacity="1" stroke="none"/>
<path d="M315.602 0.0110252L244.548 189.586L334.739 189.586L405.804 0.0110252L315.602 0.0110252Z" fill="#101010" fill-opacity="0.968627" fill-rule="nonzero" opacity="1" stroke="none"/>
<path d="M661.35 0.0110252L411.016 0.0110252L395.892 40.3775L480.185 40.3775L424.254 189.586L514.445 189.586L570.387 40.3775L647.758 40.3775L661.35 0.0110252Z" fill="#101010" fill-opacity="0.968627" fill-rule="nonzero" opacity="1" stroke="none"/>
<path d="M885.484 0.0110252L660.15 0.0110252L645.026 40.3775L804.486 40.3775L796.55 61.5749L740.02 61.5025L747.456 40.3775L664.882 40.3775L606.357 189.586L804.784 189.586C825.232 189.586 843.541 176.898 850.717 157.74L862.787 125.52C868.078 111.399 862.233 103.733 842.542 96.3525C822.851 88.9718 784.022 95.9967 784.022 95.9967L763.712 149.219L711.683 149.219L731.701 95.7905L849.141 96.2534C864.033 96.3086 877.382 87.0822 882.585 73.116L901.324 22.7957C905.424 11.7616 897.256 0.0110211 885.484 0.0110252Z" fill="#101010" fill-opacity="0.968627" fill-rule="nonzero" opacity="1" stroke="none"/>
<path d="M1127.42 0.0330715L952.558 0.0330715C934.293 0.0330715 917.935 11.3648 911.531 28.4726L860.648 164.178C856.04 176.457 865.124 189.553 878.23 189.553L1053.08 189.553C1071.34 189.553 1087.7 178.221 1094.12 161.113L1145 25.4082C1149.61 13.1285 1140.52 0.0330715 1127.42 0.0330715ZM1005.45 157.31L953.407 157.31L1000.61 32.2535L1052.28 32.2535L1005.45 157.31Z" fill="#101010" fill-opacity="0.968627" fill-rule="nonzero" opacity="1" stroke="none"/>
<path d="M1176.83 0.0110252L1155.78 38.9335C1158.68 38.9335 1283.01 38.9335 1283.01 38.9335L1272.01 90.808L1224.69 90.808L1254.2 38.9335L1173 38.9335L1088.96 189.586L1179.35 189.586L1213.33 125.586L1264.63 125.586L1251.05 189.586L1335.8 189.586L1368.59 0.0110252C1368.59 0.0110252 1179.73 0.0110252 1176.83 0.0110252Z" fill="#101010" fill-opacity="0.968627" fill-rule="nonzero" opacity="1" stroke="none"/>
<path d="M1611.05 116.569L1644.51 27.0065C1649.4 13.9332 1639.73 0.0110211 1625.79 0.0110211L1402.78 0.0110211L1387.66 40.3775L1548.87 40.3775L1527.74 94.7874L1471.11 94.7874L1489.83 40.3775L1410.57 40.3775L1349.77 189.586L1439.97 189.586L1462.57 129.565L1510.64 129.565L1536.37 189.586L1616.27 189.586L1587.27 129.565L1592.33 129.565C1600.65 129.565 1608.13 124.384 1611.05 116.569Z" fill="#101010" fill-opacity="0.968627" fill-rule="nonzero" opacity="1" stroke="none"/>
<path d="M1903.1 3.55271e-15L1677.77 3.55271e-15L1662.64 40.3775L1822.09 40.3775L1814.13 61.5859L1781.32 149.197L1729.3 149.197L1772.05 40.3775L1678.99 40.3775L1623.96 189.575L1822.4 189.575C1842.87 189.575 1861.17 176.887 1868.33 157.762L1918.92 22.8288C1923.04 11.7837 1914.87-4.13238e-06 1903.1 3.55271e-15Z" fill="#101010" fill-opacity="0.968627" fill-rule="nonzero" opacity="1" stroke="none"/>
</g>
</g>
</svg>
